PathFileType  4	(X/Y/Z) C:\Users\antoi\Documents\MyRepositories\mobilecap\ResultsAnalysis
DataRate	CameraRate	NumFrames	NumMarkers	Units	OrigDataRate	OrigDataStartFrame	OrigNumFrames
100.0	100.0	4	51	mm	100.0	30	237
Frame#	Time	r_knee			r_shank_antsup			r_ankle			r_calc			r_5meta			r_toe			L_knee			L_shank_antsup			L_ankle			L_calc			L_5meta			L_toe			r_sh2			r_sh3			r_sh4			L_sh2			L_sh3			r_thigh1			r_thigh2			r_thigh3			r_thigh4			r_thigh5			L_thigh1			L_thigh2			L_thigh3			L_thigh4			r.ASIS			r.PSIS			L.ASIS			L.PSIS			C7			R_Shoulder			L_Shoulder			R_Sternum			L_Sternum			R_humerus			R_elbow_med			R_elbow_lat			R_forearm			R_wrist_radius			R_wrist_ulna			L_humerus			L_elbow_med			L_elbow_lat			L_forearm			L_wrist_radius			L_wrist_ulna			R_HJC			L_HJC			R_HJC_reg			L_HJC_reg			
		X1	Y1	Z1	X2	Y2	Z2	X3	Y3	Z3	X4	Y4	Z4	X5	Y5	Z5	X6	Y6	Z6	X7	Y7	Z7	X8	Y8	Z8	X9	Y9	Z9	X10	Y10	Z10	X11	Y11	Z11	X12	Y12	Z12	X13	Y13	Z13	X14	Y14	Z14	X15	Y15	Z15	X16	Y16	Z16	X17	Y17	Z17	X18	Y18	Z18	X19	Y19	Z19	X20	Y20	Z20	X21	Y21	Z21	X22	Y22	Z22	X23	Y23	Z23	X24	Y24	Z24	X25	Y25	Z25	X26	Y26	Z26	X27	Y27	Z27	X28	Y28	Z28	X29	Y29	Z29	X30	Y30	Z30	X31	Y31	Z31	X32	Y32	Z32	X33	Y33	Z33	X34	Y34	Z34	X35	Y35	Z35	X36	Y36	Z36	X37	Y37	Z37	X38	Y38	Z38	X39	Y39	Z39	X40	Y40	Z40	X41	Y41	Z41	X42	Y42	Z42	X43	Y43	Z43	X44	Y44	Z44	X45	Y45	Z45	X46	Y46	Z46	X47	Y47	Z47	X48	Y48	Z48	X49	Y49	Z49	X50	Y50	Z50	X51	Y51	Z51	

30	0.29000000	-1110.45622	769.87167	-450.62755	-1108.81591	695.93309	-427.05516	-1188.39919	400.48776	-456.77985	-1258.56368	361.65087	-492.30225	-1086.86407	357.81043	-431.79811	-1045.35878	381.28838	-488.09760	-1128.48264	769.05554	-729.05906	-1107.36878	701.06688	-731.52501	-1182.37756	400.53853	-726.65949	-1251.91450	362.72121	-679.44811	-1089.07516	354.65098	-751.04749	-1041.61228	381.08022	-696.48567	-1130.48871	586.16424	-421.86156	-1181.84106	708.61853	-434.39471	-1211.66213	596.00765	-431.37104	-1192.04917	720.57408	-757.46938	-1202.31376	598.20157	-761.66508	-1033.93049	1079.56405	-454.62142	-1028.35151	966.77272	-451.65609	-1074.07224	942.52313	-407.91828	-1125.57531	1077.14639	-387.23334	-1128.00206	960.50069	-402.86526	-1051.39684	1051.41052	-751.39196	-1053.06705	910.50404	-738.61362	-1162.77339	1050.40597	-773.71545	-1159.78562	909.63283	-756.72856	-1046.34994	1228.20605	-458.93797	-1229.46063	1245.35664	-535.06060	-1042.22912	1219.25353	-716.57623	-1231.60146	1238.17042	-642.84391	-1175.91537	1707.68500	-589.42846	-1120.58536	1649.85701	-433.00039	-1102.98998	1654.86007	-753.76587	-1060.41020	1622.34929	-566.41087	-1059.04846	1622.02753	-610.40247	-1103.34654	1406.95508	-362.75364	-1153.12808	1303.08682	-413.18599	-1126.65647	1321.34810	-346.96875	-1057.88153	1218.13267	-343.13918	-1016.41565	1105.62405	-350.58898	-1054.69606	1092.48679	-334.39981	-1060.82235	1522.21145	-795.19693	-1113.95944	1308.99039	-749.81405	-1104.80842	1316.79152	-810.60034	-1041.48964	1227.43898	-829.10636	-1005.23115	1105.99214	-816.96858	-1038.66940	1092.71520	-829.18964	-1112.81553	1152.56899	-485.43415	-1107.40458	1148.18667	-685.60518	-1107.53089	1149.18613	-488.92212	-1110.92862	1137.86941	-658.66976	
31	0.30000000	-1109.83053	769.71687	-450.93371	-1108.48121	695.75705	-427.00590	-1188.60069	400.44406	-456.74623	-1258.65211	361.52288	-492.25418	-1086.98601	358.02600	-431.72932	-1045.57593	381.74080	-487.94642	-1128.44672	769.10181	-728.92941	-1107.30273	701.00532	-731.49559	-1182.58673	400.51751	-726.72021	-1251.98785	362.64571	-679.49520	-1089.34355	354.61650	-750.45244	-1041.90449	381.72371	-696.41815	-1130.37262	585.97909	-421.71592	-1181.64689	708.33204	-434.30034	-1211.55109	596.06614	-431.23324	-1191.89859	720.66884	-757.54927	-1202.38359	598.32056	-761.72661	-1033.91208	1079.48308	-454.89309	-1028.30694	966.69075	-451.66946	-1073.89774	942.41028	-407.89693	-1125.36398	1077.04692	-387.19397	-1127.81135	960.25031	-402.86782	-1050.97648	1051.18098	-751.42097	-1052.90593	910.55826	-738.46590	-1162.58368	1050.70323	-774.17634	-1159.58821	909.68329	-756.78983	-1046.29720	1227.80318	-459.12354	-1229.44183	1246.07694	-534.39046	-1042.03924	1219.14861	-716.39434	-1231.34887	1238.98658	-642.86512	-1173.13796	1707.87444	-588.82052	-1118.04390	1649.36941	-432.81756	-1100.51102	1654.72756	-752.99106	-1057.96723	1621.91683	-565.91184	-1056.66742	1621.64518	-610.13966	-1101.75702	1406.60288	-362.16250	-1152.32606	1302.84090	-411.95828	-1125.39158	1321.13575	-346.10436	-1056.44847	1217.86626	-342.66507	-1014.68195	1105.58969	-350.24086	-1052.96586	1092.27543	-333.85745	-1058.19916	1522.15795	-794.41883	-1112.49298	1309.04172	-749.70256	-1103.48943	1317.03776	-811.11620	-1039.90279	1227.52100	-828.76719	-1003.66232	1106.29416	-816.60767	-1036.86096	1092.90496	-829.19144	-1113.09680	1152.55912	-485.38552	-1107.75214	1148.41516	-685.56327	-1108.04501	1149.23657	-489.31020	-1111.04616	1138.15211	-658.83471	
32	0.31000000	-1109.50909	769.65864	-450.95722	-1108.02528	695.48832	-427.01525	-1188.78253	400.38507	-456.73604	-1258.74956	361.38250	-492.22132	-1087.13026	358.13823	-431.72796	-1045.76390	382.12157	-487.78305	-1128.37814	769.15511	-728.78783	-1107.23708	700.96886	-731.46888	-1182.80273	400.49920	-726.78320	-1252.03012	362.56987	-679.53758	-1089.67129	354.46341	-749.61325	-1042.15327	382.44211	-696.29728	-1130.03489	585.66320	-421.56598	-1181.42348	708.25531	-434.22831	-1211.35493	596.08328	-430.95579	-1191.73282	720.73446	-757.67209	-1202.81049	598.19962	-761.47663	-1033.89954	1079.35201	-455.02972	-1028.23981	966.57554	-451.71061	-1073.63255	942.31142	-407.72952	-1125.18078	1076.92524	-387.11172	-1127.58279	960.03863	-402.72315	-1050.63997	1051.02496	-750.92313	-1052.76873	910.63950	-738.30553	-1162.40370	1050.72496	-774.13672	-1159.36786	909.77536	-756.90626	-1046.19405	1227.51771	-459.40008	-1229.72267	1247.14309	-532.92851	-1041.78326	1218.98865	-716.19590	-1231.01664	1240.00996	-642.90276	-1169.92565	1708.11102	-588.23958	-1115.18320	1649.03688	-432.36716	-1097.69322	1654.80821	-752.59958	-1055.37354	1621.35123	-565.43380	-1054.09100	1621.18108	-609.89884	-1099.94864	1406.29649	-361.52746	-1151.27461	1302.51909	-410.97921	-1124.04544	1320.84888	-345.34041	-1054.91514	1217.72921	-342.14299	-1013.04517	1105.51335	-349.79713	-1051.21679	1092.09786	-333.33189	-1055.55617	1522.07144	-793.62649	-1111.80291	1309.39001	-750.05748	-1102.27655	1317.25838	-811.70898	-1038.35379	1227.73892	-828.45999	-1001.98875	1106.63866	-816.07461	-1034.95012	1093.14718	-828.97242	-1113.41697	1152.73136	-485.13646	-1108.29582	1148.71105	-685.32269	-1108.94369	1149.46277	-489.94557	-1110.93249	1138.48496	-659.18236	
33	0.32000000	-1109.57332	769.58747	-450.65997	-1107.58070	695.17074	-427.09321	-1188.92744	400.32347	-456.71803	-1258.84729	361.23536	-492.22482	-1087.26650	358.25545	-431.78722	-1045.90227	382.42859	-487.71767	-1128.22416	769.21680	-728.72201	-1107.15203	700.95174	-731.43323	-1183.01421	400.46468	-726.84502	-1252.11167	362.44539	-679.55595	-1089.81769	354.66512	-749.43449	-1042.42158	383.11103	-696.25902	-1129.54043	585.33224	-421.51885	-1181.07135	708.46955	-434.11323	-1211.09115	596.07903	-430.62274	-1191.51608	720.77231	-757.76419	-1202.92363	598.09721	-761.38437	-1033.84798	1079.23131	-455.09686	-1028.16654	966.44660	-451.76870	-1073.27027	942.11687	-407.57330	-1125.02173	1076.74092	-386.99943	-1127.31497	959.87735	-402.44605	-1050.22371	1050.88861	-750.18704	-1052.55610	910.73172	-738.01946	-1162.23469	1050.71123	-774.00503	-1159.08234	909.88693	-757.03118	-1045.77309	1227.50987	-459.27419	-1229.51505	1247.75604	-532.53175	-1041.50161	1218.70203	-715.96657	-1230.62032	1240.46836	-642.70611	-1166.32084	1708.36826	-587.60013	-1112.05782	1648.77181	-431.81796	-1094.41516	1654.96982	-752.43156	-1052.58658	1620.72769	-565.10542	-1051.24334	1620.59372	-609.49092	-1098.04239	1406.08505	-360.88110	-1149.91312	1302.25462	-410.19675	-1122.63258	1320.58353	-344.58844	-1053.36424	1217.75235	-341.49216	-1011.45155	1105.44319	-349.34633	-1049.46679	1092.06002	-332.72459	-1052.85168	1521.97676	-792.86958	-1112.68035	1309.68304	-751.49617	-1101.21180	1317.53148	-812.36833	-1036.74010	1228.15081	-828.40438	-1000.22676	1107.06275	-815.57248	-1032.92408	1093.45799	-828.79978	-1113.33779	1152.94872	-484.82366	-1108.30923	1148.69950	-685.00753	-1109.06104	1149.69299	-489.83226	-1110.74978	1138.50298	-658.99604	
